<svg xmlns="http://www.w3.org/2000/svg" width="100%" viewBox="0 0 125 37" fill="none" class="nav_logo-svg"><path d="M18.2408 37C17.9983 37.0005 17.7564 36.9742 17.5199 36.9217C16.8576 36.7852 16.258 36.4436 15.8102 35.9476C15.3623 35.4517 15.0901 34.8278 15.034 34.1686C15.0284 34.1094 15.0284 34.0497 15.034 33.9905L15.6858 23.5908L10.6007 23.5719C8.42963 23.5719 6.25856 23.5719 5.2559 23.5503H3.20361C2.65767 23.5511 2.1206 23.4154 1.64352 23.156C1.16644 22.8967 0.765241 22.5223 0.478111 22.0686C0.190982 21.6148 0.02748 21.0968 0.00317247 20.5639C-0.021135 20.0309 0.0945604 19.5008 0.339244 19.0239L9.10912 1.73601C9.37658 1.20658 9.79252 0.762342 10.3085 0.455065C10.8244 0.147789 11.4191 -0.00986545 12.0232 0.000478181L13.6805 0.0274695L25.8727 0.146231C26.0669 0.149145 26.2572 0.199653 26.4263 0.293124C26.5953 0.386595 26.7376 0.520037 26.8401 0.681214C26.9427 0.84239 27.0022 1.02614 27.0131 1.21562C27.0241 1.4051 26.9862 1.59424 26.903 1.7657L20.9616 13.6769C20.8977 13.8146 20.8062 13.9384 20.6926 14.0409C20.5789 14.1435 20.4453 14.2227 20.2998 14.2739C20.1543 14.3252 19.9997 14.3474 19.8452 14.3393C19.6907 14.3311 19.5395 14.2928 19.4004 14.2266C19.2614 14.1604 19.1373 14.0676 19.0356 13.9537C18.9338 13.8398 18.8565 13.7071 18.8081 13.5635C18.7598 13.4199 18.7414 13.2683 18.754 13.1177C18.7666 12.967 18.81 12.8203 18.8817 12.6863L24.0248 2.3892L12.0011 2.26234C11.834 2.25845 11.6693 2.30137 11.5264 2.38603C11.3835 2.47068 11.2683 2.59354 11.1946 2.74008L2.41363 20.0279C2.34617 20.1594 2.31429 20.3055 2.32102 20.4524C2.32775 20.5993 2.37287 20.7421 2.45207 20.8671C2.53128 20.9921 2.64194 21.0953 2.77349 21.1667C2.90505 21.238 3.05313 21.2753 3.20361 21.2749H5.26142C6.26409 21.2749 8.43239 21.2749 10.5979 21.2965L15.9455 21.3154H16.8404C17.0894 21.3156 17.3316 21.3945 17.5308 21.5405C17.73 21.6865 17.8754 21.8916 17.9453 22.1252L18.0116 22.333C18.0506 22.4625 18.0665 22.5976 18.0585 22.7325L17.3514 34.0148C17.3841 34.1877 17.47 34.3467 17.5976 34.4707C17.7253 34.5946 17.8886 34.6775 18.0658 34.7083C18.2429 34.7391 18.4255 34.7164 18.589 34.6431C18.7526 34.5698 18.8894 34.4495 18.9811 34.2982L30.5822 15.0778H26.7345C26.3796 15.0773 26.0308 14.9878 25.7215 14.8178C25.4122 14.6477 25.1528 14.4029 24.9681 14.1068C24.7834 13.8106 24.6797 13.4731 24.6669 13.1265C24.6541 12.78 24.7326 12.436 24.8949 12.1276L27.8228 6.59173C27.8902 6.45583 27.9848 6.33451 28.1009 6.2349C28.2171 6.1353 28.3525 6.05944 28.4991 6.0118C28.6458 5.96415 28.8007 5.94569 28.9548 5.9575C29.1088 5.9693 29.2589 6.01114 29.3962 6.08055C29.5334 6.14995 29.6551 6.24551 29.7539 6.36159C29.8527 6.47767 29.9268 6.61192 29.9717 6.75642C30.0166 6.90092 30.0314 7.05274 30.0153 7.20293C29.9992 7.35312 29.9524 7.49863 29.8778 7.63089L27.1378 12.8159H30.6761C31.0724 12.8157 31.4617 12.9181 31.8044 13.1125C32.1471 13.3069 32.4311 13.5865 32.6275 13.9229C32.8239 14.2593 32.9257 14.6404 32.9225 15.0277C32.9194 15.4149 32.8114 15.7944 32.6096 16.1277L20.9671 35.4588C20.6918 35.9275 20.2947 36.3169 19.816 36.5875C19.3373 36.8581 18.7939 37.0004 18.2408 37Z" fill="#FF3469"></path><path d="M57.2704 18.3067C57.2704 20.5426 56.4658 22.5574 55.108 24.1053L56.9184 25.948L54.4543 28.0856L52.5433 26.1446C51.2358 26.8571 49.7272 27.2503 48.118 27.2503C43.064 27.2503 38.9907 23.319 38.9907 18.3067C38.9907 13.2699 43.064 9.36321 48.118 9.36321C53.1719 9.36321 57.2704 13.2699 57.2704 18.3067ZM48.118 23.9333C48.7969 23.9333 49.4757 23.8104 50.0792 23.6139L47.1876 20.6655L49.6517 18.5279L52.7445 21.6728C53.3982 20.7638 53.8005 19.609 53.8005 18.3067C53.8005 14.9898 51.2861 12.6556 48.118 12.6556C44.9498 12.6556 42.4354 14.9898 42.4354 18.3067C42.4354 21.5991 44.9498 23.9333 48.118 23.9333Z" fill="currentColor"></path><path d="M68.1014 14.6212H71.345V26.9063H68.1014V25.5304C67.3471 26.636 66.0396 27.2503 64.3549 27.2503C61.6897 27.2503 59.6027 25.4321 59.6027 22.1642V14.6212H62.8463V21.7711C62.8463 23.4419 63.8772 24.3018 65.3355 24.3018C66.9196 24.3018 68.1014 23.3928 68.1014 21.2552V14.6212Z" fill="currentColor"></path><path d="M75.9249 13.147C74.8437 13.147 73.9385 12.2625 73.9385 11.206C73.9385 10.1495 74.8437 9.24036 75.9249 9.24036C77.0313 9.24036 77.9364 10.1495 77.9364 11.206C77.9364 12.2625 77.0313 13.147 75.9249 13.147ZM74.3157 26.9063V14.6212H77.5593V26.9063H74.3157Z" fill="currentColor"></path><path d="M86.5123 27.2503C82.6904 27.2503 79.8743 24.4247 79.8743 20.7637C79.8743 17.1028 82.6904 14.2772 86.5123 14.2772C88.9764 14.2772 91.1137 15.5549 92.1446 17.4468L89.3536 19.0438C88.8507 18.0365 87.7695 17.3976 86.4872 17.3976C84.5511 17.3976 83.1179 18.7981 83.1179 20.7637C83.1179 22.7048 84.5511 24.1053 86.4872 24.1053C87.7947 24.1053 88.8759 23.491 89.3787 22.4837L92.1949 24.0561C91.1137 25.9726 88.9764 27.2503 86.5123 27.2503Z" fill="currentColor"></path><path d="M105.502 26.9063H101.73L97.1539 21.3289V26.9063H93.9104V9.70719H97.1539V20.0266L101.479 14.6212H105.351L100.297 20.69L105.502 26.9063Z" fill="currentColor"></path><path d="M107.121 26.9063V8.97009H110.364V26.9063H107.121Z" fill="currentColor"></path><path d="M121.53 14.6212H125L120.424 26.9063C119.116 30.4444 116.979 31.9923 113.786 31.8203V28.8719C115.571 28.8965 116.476 28.1594 117.08 26.5132L111.925 14.6212H115.47L118.739 22.8768L121.53 14.6212Z" fill="currentColor"></path></svg>